<?xml version="1.0" encoding="utf-8" standalone="no"?>
<!DOCTYPE svg PUBLIC "-//W3C//DTD SVG 1.1//EN"
  "http://www.w3.org/Graphics/SVG/1.1/DTD/svg11.dtd">
<!-- Created with matplotlib (http://matplotlib.org/) -->
<svg height="432pt" version="1.1" viewBox="0 0 648 432" width="648pt" xmlns="http://www.w3.org/2000/svg" xmlns:xlink="http://www.w3.org/1999/xlink">
 <defs>
  <style type="text/css">
*{stroke-linecap:square;stroke-linejoin:round;}
  </style>
 </defs>
 <g id="figure_1">
  <g id="patch_1">
   <path d="
M0 432
L648 432
L648 0
L0 0
z
" style="fill:#ffffff;"/>
  </g>
  <g id="axes_1">
   <g id="patch_2">
    <path d="
M81 378
L583.2 378
L583.2 43.2
L81 43.2
z
" style="fill:#d9d9d9;"/>
   </g>
   <g id="matplotlib.axis_1">
    <g id="xtick_1">
     <g id="line2d_1">
      <path clip-path="url(#p6858f96ca6)" d="
M81 378
L81 43.2" style="fill:none;stroke:#ffffff;stroke-width:1.4;"/>
     </g>
     <g id="line2d_2">
      <defs>
       <path d="
M0 0
L0 5" id="mb981f9df7e" style="stroke:#808080;stroke-linecap:butt;stroke-width:1.4;"/>
      </defs>
      <g>
       <use style="fill:#808080;stroke:#808080;stroke-linecap:butt;stroke-width:1.4;" x="81.0" xlink:href="#mb981f9df7e" y="378.0"/>
      </g>
     </g>
     <g id="text_1">
      <!-- 1 -->
      <defs>
       <path d="
M12.4062 8.29688
L28.5156 8.29688
L28.5156 63.9219
L10.9844 60.4062
L10.9844 69.3906
L28.4219 72.9062
L38.2812 72.9062
L38.2812 8.29688
L54.3906 8.29688
L54.3906 0
L12.4062 0
z
" id="BitstreamVeraSans-Roman-31"/>
      </defs>
      <g transform="translate(78.8296875 393.290625)scale(0.1 -0.1)">
       <use xlink:href="#BitstreamVeraSans-Roman-31"/>
      </g>
     </g>
    </g>
    <g id="xtick_2">
     <g id="line2d_3">
      <path clip-path="url(#p6858f96ca6)" d="
M181.44 378
L181.44 43.2" style="fill:none;stroke:#ffffff;stroke-width:1.4;"/>
     </g>
     <g id="line2d_4">
      <g>
       <use style="fill:#808080;stroke:#808080;stroke-linecap:butt;stroke-width:1.4;" x="181.44" xlink:href="#mb981f9df7e" y="378.0"/>
      </g>
     </g>
     <g id="text_2">
      <!-- 2 -->
      <defs>
       <path d="
M19.1875 8.29688
L53.6094 8.29688
L53.6094 0
L7.32812 0
L7.32812 8.29688
Q12.9375 14.1094 22.625 23.8906
Q32.3281 33.6875 34.8125 36.5312
Q39.5469 41.8438 41.4219 45.5312
Q43.3125 49.2188 43.3125 52.7812
Q43.3125 58.5938 39.2344 62.25
Q35.1562 65.9219 28.6094 65.9219
Q23.9688 65.9219 18.8125 64.3125
Q13.6719 62.7031 7.8125 59.4219
L7.8125 69.3906
Q13.7656 71.7812 18.9375 73
Q24.125 74.2188 28.4219 74.2188
Q39.75 74.2188 46.4844 68.5469
Q53.2188 62.8906 53.2188 53.4219
Q53.2188 48.9219 51.5312 44.8906
Q49.8594 40.875 45.4062 35.4062
Q44.1875 33.9844 37.6406 27.2188
Q31.1094 20.4531 19.1875 8.29688" id="BitstreamVeraSans-Roman-32"/>
      </defs>
      <g transform="translate(179.1259375 393.421875)scale(0.1 -0.1)">
       <use xlink:href="#BitstreamVeraSans-Roman-32"/>
      </g>
     </g>
    </g>
    <g id="xtick_3">
     <g id="line2d_5">
      <path clip-path="url(#p6858f96ca6)" d="
M281.88 378
L281.88 43.2" style="fill:none;stroke:#ffffff;stroke-width:1.4;"/>
     </g>
     <g id="line2d_6">
      <g>
       <use style="fill:#808080;stroke:#808080;stroke-linecap:butt;stroke-width:1.4;" x="281.88" xlink:href="#mb981f9df7e" y="378.0"/>
      </g>
     </g>
     <g id="text_3">
      <!-- 3 -->
      <defs>
       <path d="
M40.5781 39.3125
Q47.6562 37.7969 51.625 33
Q55.6094 28.2188 55.6094 21.1875
Q55.6094 10.4062 48.1875 4.48438
Q40.7656 -1.42188 27.0938 -1.42188
Q22.5156 -1.42188 17.6562 -0.515625
Q12.7969 0.390625 7.625 2.20312
L7.625 11.7188
Q11.7188 9.32812 16.5938 8.10938
Q21.4844 6.89062 26.8125 6.89062
Q36.0781 6.89062 40.9375 10.5469
Q45.7969 14.2031 45.7969 21.1875
Q45.7969 27.6406 41.2812 31.2656
Q36.7656 34.9062 28.7188 34.9062
L20.2188 34.9062
L20.2188 43.0156
L29.1094 43.0156
Q36.375 43.0156 40.2344 45.9219
Q44.0938 48.8281 44.0938 54.2969
Q44.0938 59.9062 40.1094 62.9062
Q36.1406 65.9219 28.7188 65.9219
Q24.6562 65.9219 20.0156 65.0312
Q15.375 64.1562 9.8125 62.3125
L9.8125 71.0938
Q15.4375 72.6562 20.3438 73.4375
Q25.25 74.2188 29.5938 74.2188
Q40.8281 74.2188 47.3594 69.1094
Q53.9062 64.0156 53.9062 55.3281
Q53.9062 49.2656 50.4375 45.0938
Q46.9688 40.9219 40.5781 39.3125" id="BitstreamVeraSans-Roman-33"/>
      </defs>
      <g transform="translate(279.48078125 393.421875)scale(0.1 -0.1)">
       <use xlink:href="#BitstreamVeraSans-Roman-33"/>
      </g>
     </g>
    </g>
    <g id="xtick_4">
     <g id="line2d_7">
      <path clip-path="url(#p6858f96ca6)" d="
M382.32 378
L382.32 43.2" style="fill:none;stroke:#ffffff;stroke-width:1.4;"/>
     </g>
     <g id="line2d_8">
      <g>
       <use style="fill:#808080;stroke:#808080;stroke-linecap:butt;stroke-width:1.4;" x="382.32" xlink:href="#mb981f9df7e" y="378.0"/>
      </g>
     </g>
     <g id="text_4">
      <!-- 4 -->
      <defs>
       <path d="
M37.7969 64.3125
L12.8906 25.3906
L37.7969 25.3906
z

M35.2031 72.9062
L47.6094 72.9062
L47.6094 25.3906
L58.0156 25.3906
L58.0156 17.1875
L47.6094 17.1875
L47.6094 0
L37.7969 0
L37.7969 17.1875
L4.89062 17.1875
L4.89062 26.7031
z
" id="BitstreamVeraSans-Roman-34"/>
      </defs>
      <g transform="translate(379.66375 393.290625)scale(0.1 -0.1)">
       <use xlink:href="#BitstreamVeraSans-Roman-34"/>
      </g>
     </g>
    </g>
    <g id="xtick_5">
     <g id="line2d_9">
      <path clip-path="url(#p6858f96ca6)" d="
M482.76 378
L482.76 43.2" style="fill:none;stroke:#ffffff;stroke-width:1.4;"/>
     </g>
     <g id="line2d_10">
      <g>
       <use style="fill:#808080;stroke:#808080;stroke-linecap:butt;stroke-width:1.4;" x="482.76" xlink:href="#mb981f9df7e" y="378.0"/>
      </g>
     </g>
     <g id="text_5">
      <!-- 5 -->
      <defs>
       <path d="
M10.7969 72.9062
L49.5156 72.9062
L49.5156 64.5938
L19.8281 64.5938
L19.8281 46.7344
Q21.9688 47.4688 24.1094 47.8281
Q26.2656 48.1875 28.4219 48.1875
Q40.625 48.1875 47.75 41.5
Q54.8906 34.8125 54.8906 23.3906
Q54.8906 11.625 47.5625 5.09375
Q40.2344 -1.42188 26.9062 -1.42188
Q22.3125 -1.42188 17.5469 -0.640625
Q12.7969 0.140625 7.71875 1.70312
L7.71875 11.625
Q12.1094 9.23438 16.7969 8.0625
Q21.4844 6.89062 26.7031 6.89062
Q35.1562 6.89062 40.0781 11.3281
Q45.0156 15.7656 45.0156 23.3906
Q45.0156 31 40.0781 35.4375
Q35.1562 39.8906 26.7031 39.8906
Q22.75 39.8906 18.8125 39.0156
Q14.8906 38.1406 10.7969 36.2812
z
" id="BitstreamVeraSans-Roman-35"/>
      </defs>
      <g transform="translate(480.40140625 393.290625)scale(0.1 -0.1)">
       <use xlink:href="#BitstreamVeraSans-Roman-35"/>
      </g>
     </g>
    </g>
    <g id="xtick_6">
     <g id="line2d_11">
      <path clip-path="url(#p6858f96ca6)" d="
M583.2 378
L583.2 43.2" style="fill:none;stroke:#ffffff;stroke-width:1.4;"/>
     </g>
     <g id="line2d_12">
      <g>
       <use style="fill:#808080;stroke:#808080;stroke-linecap:butt;stroke-width:1.4;" x="583.2" xlink:href="#mb981f9df7e" y="378.0"/>
      </g>
     </g>
     <g id="text_6">
      <!-- 6 -->
      <defs>
       <path d="
M33.0156 40.375
Q26.375 40.375 22.4844 35.8281
Q18.6094 31.2969 18.6094 23.3906
Q18.6094 15.5312 22.4844 10.9531
Q26.375 6.39062 33.0156 6.39062
Q39.6562 6.39062 43.5312 10.9531
Q47.4062 15.5312 47.4062 23.3906
Q47.4062 31.2969 43.5312 35.8281
Q39.6562 40.375 33.0156 40.375
M52.5938 71.2969
L52.5938 62.3125
Q48.875 64.0625 45.0938 64.9844
Q41.3125 65.9219 37.5938 65.9219
Q27.8281 65.9219 22.6719 59.3281
Q17.5312 52.7344 16.7969 39.4062
Q19.6719 43.6562 24.0156 45.9219
Q28.375 48.1875 33.5938 48.1875
Q44.5781 48.1875 50.9531 41.5156
Q57.3281 34.8594 57.3281 23.3906
Q57.3281 12.1562 50.6875 5.35938
Q44.0469 -1.42188 33.0156 -1.42188
Q20.3594 -1.42188 13.6719 8.26562
Q6.98438 17.9688 6.98438 36.375
Q6.98438 53.6562 15.1875 63.9375
Q23.3906 74.2188 37.2031 74.2188
Q40.9219 74.2188 44.7031 73.4844
Q48.4844 72.75 52.5938 71.2969" id="BitstreamVeraSans-Roman-36"/>
      </defs>
      <g transform="translate(580.6828125 393.421875)scale(0.1 -0.1)">
       <use xlink:href="#BitstreamVeraSans-Roman-36"/>
      </g>
     </g>
    </g>
    <g id="xtick_7">
     <g id="line2d_13">
      <path clip-path="url(#p6858f96ca6)" d="
M81 378
L81 43.2" style="fill:none;stroke:#ebebeb;stroke-width:0.7;"/>
     </g>
     <g id="line2d_14">
      <defs>
       <path d="
M0 0
L0 0" id="mb51e87089c" style="stroke:#000000;stroke-linecap:butt;stroke-width:0.5;"/>
      </defs>
      <g>
       <use style="stroke:#000000;stroke-linecap:butt;stroke-width:0.5;" x="81.0" xlink:href="#mb51e87089c" y="378.0"/>
      </g>
     </g>
    </g>
    <g id="xtick_8">
     <g id="line2d_15">
      <path clip-path="url(#p6858f96ca6)" d="
M131.22 378
L131.22 43.2" style="fill:none;stroke:#ebebeb;stroke-width:0.7;"/>
     </g>
     <g id="line2d_16">
      <g>
       <use style="stroke:#000000;stroke-linecap:butt;stroke-width:0.5;" x="131.22" xlink:href="#mb51e87089c" y="378.0"/>
      </g>
     </g>
    </g>
    <g id="xtick_9">
     <g id="line2d_17">
      <path clip-path="url(#p6858f96ca6)" d="
M181.44 378
L181.44 43.2" style="fill:none;stroke:#ebebeb;stroke-width:0.7;"/>
     </g>
     <g id="line2d_18">
      <g>
       <use style="stroke:#000000;stroke-linecap:butt;stroke-width:0.5;" x="181.44" xlink:href="#mb51e87089c" y="378.0"/>
      </g>
     </g>
    </g>
    <g id="xtick_10">
     <g id="line2d_19">
      <path clip-path="url(#p6858f96ca6)" d="
M231.66 378
L231.66 43.2" style="fill:none;stroke:#ebebeb;stroke-width:0.7;"/>
     </g>
     <g id="line2d_20">
      <g>
       <use style="stroke:#000000;stroke-linecap:butt;stroke-width:0.5;" x="231.66" xlink:href="#mb51e87089c" y="378.0"/>
      </g>
     </g>
    </g>
    <g id="xtick_11">
     <g id="line2d_21">
      <path clip-path="url(#p6858f96ca6)" d="
M281.88 378
L281.88 43.2" style="fill:none;stroke:#ebebeb;stroke-width:0.7;"/>
     </g>
     <g id="line2d_22">
      <g>
       <use style="stroke:#000000;stroke-linecap:butt;stroke-width:0.5;" x="281.88" xlink:href="#mb51e87089c" y="378.0"/>
      </g>
     </g>
    </g>
    <g id="xtick_12">
     <g id="line2d_23">
      <path clip-path="url(#p6858f96ca6)" d="
M332.1 378
L332.1 43.2" style="fill:none;stroke:#ebebeb;stroke-width:0.7;"/>
     </g>
     <g id="line2d_24">
      <g>
       <use style="stroke:#000000;stroke-linecap:butt;stroke-width:0.5;" x="332.1" xlink:href="#mb51e87089c" y="378.0"/>
      </g>
     </g>
    </g>
    <g id="xtick_13">
     <g id="line2d_25">
      <path clip-path="url(#p6858f96ca6)" d="
M382.32 378
L382.32 43.2" style="fill:none;stroke:#ebebeb;stroke-width:0.7;"/>
     </g>
     <g id="line2d_26">
      <g>
       <use style="stroke:#000000;stroke-linecap:butt;stroke-width:0.5;" x="382.32" xlink:href="#mb51e87089c" y="378.0"/>
      </g>
     </g>
    </g>
    <g id="xtick_14">
     <g id="line2d_27">
      <path clip-path="url(#p6858f96ca6)" d="
M432.54 378
L432.54 43.2" style="fill:none;stroke:#ebebeb;stroke-width:0.7;"/>
     </g>
     <g id="line2d_28">
      <g>
       <use style="stroke:#000000;stroke-linecap:butt;stroke-width:0.5;" x="432.54" xlink:href="#mb51e87089c" y="378.0"/>
      </g>
     </g>
    </g>
    <g id="xtick_15">
     <g id="line2d_29">
      <path clip-path="url(#p6858f96ca6)" d="
M482.76 378
L482.76 43.2" style="fill:none;stroke:#ebebeb;stroke-width:0.7;"/>
     </g>
     <g id="line2d_30">
      <g>
       <use style="stroke:#000000;stroke-linecap:butt;stroke-width:0.5;" x="482.76" xlink:href="#mb51e87089c" y="378.0"/>
      </g>
     </g>
    </g>
    <g id="xtick_16">
     <g id="line2d_31">
      <path clip-path="url(#p6858f96ca6)" d="
M532.98 378
L532.98 43.2" style="fill:none;stroke:#ebebeb;stroke-width:0.7;"/>
     </g>
     <g id="line2d_32">
      <g>
       <use style="stroke:#000000;stroke-linecap:butt;stroke-width:0.5;" x="532.98" xlink:href="#mb51e87089c" y="378.0"/>
      </g>
     </g>
    </g>
    <g id="xtick_17">
     <g id="line2d_33">
      <path clip-path="url(#p6858f96ca6)" d="
M583.2 378
L583.2 43.2" style="fill:none;stroke:#ebebeb;stroke-width:0.7;"/>
     </g>
     <g id="line2d_34">
      <g>
       <use style="stroke:#000000;stroke-linecap:butt;stroke-width:0.5;" x="583.2" xlink:href="#mb51e87089c" y="378.0"/>
      </g>
     </g>
    </g>
    <g id="text_7">
     <!-- wt -->
     <defs>
      <path d="
M4.20312 54.6875
L13.1875 54.6875
L24.4219 12.0156
L35.5938 54.6875
L46.1875 54.6875
L57.4219 12.0156
L68.6094 54.6875
L77.5938 54.6875
L63.2812 0
L52.6875 0
L40.9219 44.8281
L29.1094 0
L18.5 0
z
" id="BitstreamVeraSans-Roman-77"/>
      <path d="
M18.3125 70.2188
L18.3125 54.6875
L36.8125 54.6875
L36.8125 47.7031
L18.3125 47.7031
L18.3125 18.0156
Q18.3125 11.3281 20.1406 9.42188
Q21.9688 7.51562 27.5938 7.51562
L36.8125 7.51562
L36.8125 0
L27.5938 0
Q17.1875 0 13.2344 3.875
Q9.28125 7.76562 9.28125 18.0156
L9.28125 47.7031
L2.6875 47.7031
L2.6875 54.6875
L9.28125 54.6875
L9.28125 70.2188
z
" id="BitstreamVeraSans-Roman-74"/>
     </defs>
     <g transform="translate(326.38046875 405.5859375)scale(0.1 -0.1)">
      <use xlink:href="#BitstreamVeraSans-Roman-77"/>
      <use x="81.787109375" xlink:href="#BitstreamVeraSans-Roman-74"/>
     </g>
    </g>
   </g>
   <g id="matplotlib.axis_2">
    <g id="ytick_1">
     <g id="line2d_35">
      <path clip-path="url(#p6858f96ca6)" d="
M81 378
L583.2 378" style="fill:none;stroke:#ffffff;stroke-width:1.4;"/>
     </g>
     <g id="line2d_36">
      <defs>
       <path d="
M0 0
L-5 0" id="mf76a251837" style="stroke:#808080;stroke-linecap:butt;stroke-width:1.4;"/>
      </defs>
      <g>
       <use style="fill:#808080;stroke:#808080;stroke-linecap:butt;stroke-width:1.4;" x="81.0" xlink:href="#mf76a251837" y="378.0"/>
      </g>
     </g>
     <g id="text_8">
      <!-- 5 -->
      <g transform="translate(68.2828125 381.57421875)scale(0.1 -0.1)">
       <use xlink:href="#BitstreamVeraSans-Roman-35"/>
      </g>
     </g>
    </g>
    <g id="ytick_2">
     <g id="line2d_37">
      <path clip-path="url(#p6858f96ca6)" d="
M81 330.171
L583.2 330.171" style="fill:none;stroke:#ffffff;stroke-width:1.4;"/>
     </g>
     <g id="line2d_38">
      <g>
       <use style="fill:#808080;stroke:#808080;stroke-linecap:butt;stroke-width:1.4;" x="81.0" xlink:href="#mf76a251837" y="330.171428571"/>
      </g>
     </g>
     <g id="text_9">
      <!-- 10 -->
      <defs>
       <path d="
M31.7812 66.4062
Q24.1719 66.4062 20.3281 58.9062
Q16.5 51.4219 16.5 36.375
Q16.5 21.3906 20.3281 13.8906
Q24.1719 6.39062 31.7812 6.39062
Q39.4531 6.39062 43.2812 13.8906
Q47.125 21.3906 47.125 36.375
Q47.125 51.4219 43.2812 58.9062
Q39.4531 66.4062 31.7812 66.4062
M31.7812 74.2188
Q44.0469 74.2188 50.5156 64.5156
Q56.9844 54.8281 56.9844 36.375
Q56.9844 17.9688 50.5156 8.26562
Q44.0469 -1.42188 31.7812 -1.42188
Q19.5312 -1.42188 13.0625 8.26562
Q6.59375 17.9688 6.59375 36.375
Q6.59375 54.8281 13.0625 64.5156
Q19.5312 74.2188 31.7812 74.2188" id="BitstreamVeraSans-Roman-30"/>
      </defs>
      <g transform="translate(62.0375 333.811272321)scale(0.1 -0.1)">
       <use xlink:href="#BitstreamVeraSans-Roman-31"/>
       <use x="63.623046875" xlink:href="#BitstreamVeraSans-Roman-30"/>
      </g>
     </g>
    </g>
    <g id="ytick_3">
     <g id="line2d_39">
      <path clip-path="url(#p6858f96ca6)" d="
M81 282.343
L583.2 282.343" style="fill:none;stroke:#ffffff;stroke-width:1.4;"/>
     </g>
     <g id="line2d_40">
      <g>
       <use style="fill:#808080;stroke:#808080;stroke-linecap:butt;stroke-width:1.4;" x="81.0" xlink:href="#mf76a251837" y="282.342857143"/>
      </g>
     </g>
     <g id="text_10">
      <!-- 15 -->
      <g transform="translate(62.246875 285.917075893)scale(0.1 -0.1)">
       <use xlink:href="#BitstreamVeraSans-Roman-31"/>
       <use x="63.623046875" xlink:href="#BitstreamVeraSans-Roman-35"/>
      </g>
     </g>
    </g>
    <g id="ytick_4">
     <g id="line2d_41">
      <path clip-path="url(#p6858f96ca6)" d="
M81 234.514
L583.2 234.514" style="fill:none;stroke:#ffffff;stroke-width:1.4;"/>
     </g>
     <g id="line2d_42">
      <g>
       <use style="fill:#808080;stroke:#808080;stroke-linecap:butt;stroke-width:1.4;" x="81.0" xlink:href="#mf76a251837" y="234.514285714"/>
      </g>
     </g>
     <g id="text_11">
      <!-- 20 -->
      <g transform="translate(61.671875 238.154129464)scale(0.1 -0.1)">
       <use xlink:href="#BitstreamVeraSans-Roman-32"/>
       <use x="63.623046875" xlink:href="#BitstreamVeraSans-Roman-30"/>
      </g>
     </g>
    </g>
    <g id="ytick_5">
     <g id="line2d_43">
      <path clip-path="url(#p6858f96ca6)" d="
M81 186.686
L583.2 186.686" style="fill:none;stroke:#ffffff;stroke-width:1.4;"/>
     </g>
     <g id="line2d_44">
      <g>
       <use style="fill:#808080;stroke:#808080;stroke-linecap:butt;stroke-width:1.4;" x="81.0" xlink:href="#mf76a251837" y="186.685714286"/>
      </g>
     </g>
     <g id="text_12">
      <!-- 25 -->
      <g transform="translate(61.88125 190.325558036)scale(0.1 -0.1)">
       <use xlink:href="#BitstreamVeraSans-Roman-32"/>
       <use x="63.623046875" xlink:href="#BitstreamVeraSans-Roman-35"/>
      </g>
     </g>
    </g>
    <g id="ytick_6">
     <g id="line2d_45">
      <path clip-path="url(#p6858f96ca6)" d="
M81 138.857
L583.2 138.857" style="fill:none;stroke:#ffffff;stroke-width:1.4;"/>
     </g>
     <g id="line2d_46">
      <g>
       <use style="fill:#808080;stroke:#808080;stroke-linecap:butt;stroke-width:1.4;" x="81.0" xlink:href="#mf76a251837" y="138.857142857"/>
      </g>
     </g>
     <g id="text_13">
      <!-- 30 -->
      <g transform="translate(61.7015625 142.496986607)scale(0.1 -0.1)">
       <use xlink:href="#BitstreamVeraSans-Roman-33"/>
       <use x="63.623046875" xlink:href="#BitstreamVeraSans-Roman-30"/>
      </g>
     </g>
    </g>
    <g id="ytick_7">
     <g id="line2d_47">
      <path clip-path="url(#p6858f96ca6)" d="
M81 91.0286
L583.2 91.0286" style="fill:none;stroke:#ffffff;stroke-width:1.4;"/>
     </g>
     <g id="line2d_48">
      <g>
       <use style="fill:#808080;stroke:#808080;stroke-linecap:butt;stroke-width:1.4;" x="81.0" xlink:href="#mf76a251837" y="91.0285714286"/>
      </g>
     </g>
     <g id="text_14">
      <!-- 35 -->
      <g transform="translate(61.9109375 94.6684151786)scale(0.1 -0.1)">
       <use xlink:href="#BitstreamVeraSans-Roman-33"/>
       <use x="63.623046875" xlink:href="#BitstreamVeraSans-Roman-35"/>
      </g>
     </g>
    </g>
    <g id="ytick_8">
     <g id="line2d_49">
      <path clip-path="url(#p6858f96ca6)" d="
M81 43.2
L583.2 43.2" style="fill:none;stroke:#ffffff;stroke-width:1.4;"/>
     </g>
     <g id="line2d_50">
      <g>
       <use style="fill:#808080;stroke:#808080;stroke-linecap:butt;stroke-width:1.4;" x="81.0" xlink:href="#mf76a251837" y="43.2"/>
      </g>
     </g>
     <g id="text_15">
      <!-- 40 -->
      <g transform="translate(61.428125 46.83984375)scale(0.1 -0.1)">
       <use xlink:href="#BitstreamVeraSans-Roman-34"/>
       <use x="63.623046875" xlink:href="#BitstreamVeraSans-Roman-30"/>
      </g>
     </g>
    </g>
    <g id="ytick_9">
     <g id="line2d_51">
      <path clip-path="url(#p6858f96ca6)" d="
M81 378
L583.2 378" style="fill:none;stroke:#ebebeb;stroke-width:0.7;"/>
     </g>
     <g id="line2d_52">
      <g>
       <use style="stroke:#000000;stroke-linecap:butt;stroke-width:0.5;" x="81.0" xlink:href="#mb51e87089c" y="378.0"/>
      </g>
     </g>
    </g>
    <g id="ytick_10">
     <g id="line2d_53">
      <path clip-path="url(#p6858f96ca6)" d="
M81 354.086
L583.2 354.086" style="fill:none;stroke:#ebebeb;stroke-width:0.7;"/>
     </g>
     <g id="line2d_54">
      <g>
       <use style="stroke:#000000;stroke-linecap:butt;stroke-width:0.5;" x="81.0" xlink:href="#mb51e87089c" y="354.085714286"/>
      </g>
     </g>
    </g>
    <g id="ytick_11">
     <g id="line2d_55">
      <path clip-path="url(#p6858f96ca6)" d="
M81 330.171
L583.2 330.171" style="fill:none;stroke:#ebebeb;stroke-width:0.7;"/>
     </g>
     <g id="line2d_56">
      <g>
       <use style="stroke:#000000;stroke-linecap:butt;stroke-width:0.5;" x="81.0" xlink:href="#mb51e87089c" y="330.171428571"/>
      </g>
     </g>
    </g>
    <g id="ytick_12">
     <g id="line2d_57">
      <path clip-path="url(#p6858f96ca6)" d="
M81 306.257
L583.2 306.257" style="fill:none;stroke:#ebebeb;stroke-width:0.7;"/>
     </g>
     <g id="line2d_58">
      <g>
       <use style="stroke:#000000;stroke-linecap:butt;stroke-width:0.5;" x="81.0" xlink:href="#mb51e87089c" y="306.257142857"/>
      </g>
     </g>
    </g>
    <g id="ytick_13">
     <g id="line2d_59">
      <path clip-path="url(#p6858f96ca6)" d="
M81 282.343
L583.2 282.343" style="fill:none;stroke:#ebebeb;stroke-width:0.7;"/>
     </g>
     <g id="line2d_60">
      <g>
       <use style="stroke:#000000;stroke-linecap:butt;stroke-width:0.5;" x="81.0" xlink:href="#mb51e87089c" y="282.342857143"/>
      </g>
     </g>
    </g>
    <g id="ytick_14">
     <g id="line2d_61">
      <path clip-path="url(#p6858f96ca6)" d="
M81 258.429
L583.2 258.429" style="fill:none;stroke:#ebebeb;stroke-width:0.7;"/>
     </g>
     <g id="line2d_62">
      <g>
       <use style="stroke:#000000;stroke-linecap:butt;stroke-width:0.5;" x="81.0" xlink:href="#mb51e87089c" y="258.428571429"/>
      </g>
     </g>
    </g>
    <g id="ytick_15">
     <g id="line2d_63">
      <path clip-path="url(#p6858f96ca6)" d="
M81 234.514
L583.2 234.514" style="fill:none;stroke:#ebebeb;stroke-width:0.7;"/>
     </g>
     <g id="line2d_64">
      <g>
       <use style="stroke:#000000;stroke-linecap:butt;stroke-width:0.5;" x="81.0" xlink:href="#mb51e87089c" y="234.514285714"/>
      </g>
     </g>
    </g>
    <g id="ytick_16">
     <g id="line2d_65">
      <path clip-path="url(#p6858f96ca6)" d="
M81 210.6
L583.2 210.6" style="fill:none;stroke:#ebebeb;stroke-width:0.7;"/>
     </g>
     <g id="line2d_66">
      <g>
       <use style="stroke:#000000;stroke-linecap:butt;stroke-width:0.5;" x="81.0" xlink:href="#mb51e87089c" y="210.6"/>
      </g>
     </g>
    </g>
    <g id="ytick_17">
     <g id="line2d_67">
      <path clip-path="url(#p6858f96ca6)" d="
M81 186.686
L583.2 186.686" style="fill:none;stroke:#ebebeb;stroke-width:0.7;"/>
     </g>
     <g id="line2d_68">
      <g>
       <use style="stroke:#000000;stroke-linecap:butt;stroke-width:0.5;" x="81.0" xlink:href="#mb51e87089c" y="186.685714286"/>
      </g>
     </g>
    </g>
    <g id="ytick_18">
     <g id="line2d_69">
      <path clip-path="url(#p6858f96ca6)" d="
M81 162.771
L583.2 162.771" style="fill:none;stroke:#ebebeb;stroke-width:0.7;"/>
     </g>
     <g id="line2d_70">
      <g>
       <use style="stroke:#000000;stroke-linecap:butt;stroke-width:0.5;" x="81.0" xlink:href="#mb51e87089c" y="162.771428571"/>
      </g>
     </g>
    </g>
    <g id="ytick_19">
     <g id="line2d_71">
      <path clip-path="url(#p6858f96ca6)" d="
M81 138.857
L583.2 138.857" style="fill:none;stroke:#ebebeb;stroke-width:0.7;"/>
     </g>
     <g id="line2d_72">
      <g>
       <use style="stroke:#000000;stroke-linecap:butt;stroke-width:0.5;" x="81.0" xlink:href="#mb51e87089c" y="138.857142857"/>
      </g>
     </g>
    </g>
    <g id="ytick_20">
     <g id="line2d_73">
      <path clip-path="url(#p6858f96ca6)" d="
M81 114.943
L583.2 114.943" style="fill:none;stroke:#ebebeb;stroke-width:0.7;"/>
     </g>
     <g id="line2d_74">
      <g>
       <use style="stroke:#000000;stroke-linecap:butt;stroke-width:0.5;" x="81.0" xlink:href="#mb51e87089c" y="114.942857143"/>
      </g>
     </g>
    </g>
    <g id="ytick_21">
     <g id="line2d_75">
      <path clip-path="url(#p6858f96ca6)" d="
M81 91.0286
L583.2 91.0286" style="fill:none;stroke:#ebebeb;stroke-width:0.7;"/>
     </g>
     <g id="line2d_76">
      <g>
       <use style="stroke:#000000;stroke-linecap:butt;stroke-width:0.5;" x="81.0" xlink:href="#mb51e87089c" y="91.0285714286"/>
      </g>
     </g>
    </g>
    <g id="ytick_22">
     <g id="line2d_77">
      <path clip-path="url(#p6858f96ca6)" d="
M81 67.1143
L583.2 67.1143" style="fill:none;stroke:#ebebeb;stroke-width:0.7;"/>
     </g>
     <g id="line2d_78">
      <g>
       <use style="stroke:#000000;stroke-linecap:butt;stroke-width:0.5;" x="81.0" xlink:href="#mb51e87089c" y="67.1142857143"/>
      </g>
     </g>
    </g>
    <g id="ytick_23">
     <g id="line2d_79">
      <path clip-path="url(#p6858f96ca6)" d="
M81 43.2
L583.2 43.2" style="fill:none;stroke:#ebebeb;stroke-width:0.7;"/>
     </g>
     <g id="line2d_80">
      <g>
       <use style="stroke:#000000;stroke-linecap:butt;stroke-width:0.5;" x="81.0" xlink:href="#mb51e87089c" y="43.2"/>
      </g>
     </g>
    </g>
    <g id="text_16">
     <!-- mpg -->
     <defs>
      <path d="
M52 44.1875
Q55.375 50.25 60.0625 53.125
Q64.75 56 71.0938 56
Q79.6406 56 84.2812 50.0156
Q88.9219 44.0469 88.9219 33.0156
L88.9219 0
L79.8906 0
L79.8906 32.7188
Q79.8906 40.5781 77.0938 44.375
Q74.3125 48.1875 68.6094 48.1875
Q61.625 48.1875 57.5625 43.5469
Q53.5156 38.9219 53.5156 30.9062
L53.5156 0
L44.4844 0
L44.4844 32.7188
Q44.4844 40.625 41.7031 44.4062
Q38.9219 48.1875 33.1094 48.1875
Q26.2188 48.1875 22.1562 43.5312
Q18.1094 38.875 18.1094 30.9062
L18.1094 0
L9.07812 0
L9.07812 54.6875
L18.1094 54.6875
L18.1094 46.1875
Q21.1875 51.2188 25.4844 53.6094
Q29.7812 56 35.6875 56
Q41.6562 56 45.8281 52.9688
Q50 49.9531 52 44.1875" id="BitstreamVeraSans-Roman-6d"/>
      <path d="
M45.4062 27.9844
Q45.4062 37.75 41.375 43.1094
Q37.3594 48.4844 30.0781 48.4844
Q22.8594 48.4844 18.8281 43.1094
Q14.7969 37.75 14.7969 27.9844
Q14.7969 18.2656 18.8281 12.8906
Q22.8594 7.51562 30.0781 7.51562
Q37.3594 7.51562 41.375 12.8906
Q45.4062 18.2656 45.4062 27.9844
M54.3906 6.78125
Q54.3906 -7.17188 48.1875 -13.9844
Q42 -20.7969 29.2031 -20.7969
Q24.4688 -20.7969 20.2656 -20.0938
Q16.0625 -19.3906 12.1094 -17.9219
L12.1094 -9.1875
Q16.0625 -11.3281 19.9219 -12.3438
Q23.7812 -13.375 27.7812 -13.375
Q36.625 -13.375 41.0156 -8.76562
Q45.4062 -4.15625 45.4062 5.17188
L45.4062 9.625
Q42.625 4.78125 38.2812 2.39062
Q33.9375 0 27.875 0
Q17.8281 0 11.6719 7.65625
Q5.51562 15.3281 5.51562 27.9844
Q5.51562 40.6719 11.6719 48.3281
Q17.8281 56 27.875 56
Q33.9375 56 38.2812 53.6094
Q42.625 51.2188 45.4062 46.3906
L45.4062 54.6875
L54.3906 54.6875
z
" id="BitstreamVeraSans-Roman-67"/>
      <path d="
M18.1094 8.20312
L18.1094 -20.7969
L9.07812 -20.7969
L9.07812 54.6875
L18.1094 54.6875
L18.1094 46.3906
Q20.9531 51.2656 25.2656 53.625
Q29.5938 56 35.5938 56
Q45.5625 56 51.7812 48.0938
Q58.0156 40.1875 58.0156 27.2969
Q58.0156 14.4062 51.7812 6.48438
Q45.5625 -1.42188 35.5938 -1.42188
Q29.5938 -1.42188 25.2656 0.953125
Q20.9531 3.32812 18.1094 8.20312
M48.6875 27.2969
Q48.6875 37.2031 44.6094 42.8438
Q40.5312 48.4844 33.4062 48.4844
Q26.2656 48.4844 22.1875 42.8438
Q18.1094 37.2031 18.1094 27.2969
Q18.1094 17.3906 22.1875 11.75
Q26.2656 6.10938 33.4062 6.10938
Q40.5312 6.10938 44.6094 11.75
Q48.6875 17.3906 48.6875 27.2969" id="BitstreamVeraSans-Roman-70"/>
     </defs>
     <g transform="translate(56.428125 218.83046875)rotate(-90.0)scale(0.1 -0.1)">
      <use xlink:href="#BitstreamVeraSans-Roman-6d"/>
      <use x="97.412109375" xlink:href="#BitstreamVeraSans-Roman-70"/>
      <use x="160.888671875" xlink:href="#BitstreamVeraSans-Roman-67"/>
     </g>
    </g>
   </g>
   <g id="PathCollection_1">
    <defs>
     <path d="
M0 3.53553
C0.937635 3.53553 1.83699 3.16301 2.5 2.5
C3.16301 1.83699 3.53553 0.937635 3.53553 0
C3.53553 -0.937635 3.16301 -1.83699 2.5 -2.5
C1.83699 -3.16301 0.937635 -3.53553 0 -3.53553
C-0.937635 -3.53553 -1.83699 -3.16301 -2.5 -2.5
C-3.16301 -1.83699 -3.53553 -0.937635 -3.53553 0
C-3.53553 0.937635 -3.16301 1.83699 -2.5 2.5
C-1.83699 3.16301 -0.937635 3.53553 0 3.53553
z
" id="C0_0_44316a752d"/>
    </defs>
    <g clip-path="url(#p6858f96ca6)">
     <use style="fill:#ff7f00;" x="213.5808" xlink:href="#C0_0_44316a752d" y="207.730285714"/>
    </g>
    <g clip-path="url(#p6858f96ca6)">
     <use style="fill:#ff7f00;" x="300.9636" xlink:href="#C0_0_44316a752d" y="192.425142857"/>
    </g>
    <g clip-path="url(#p6858f96ca6)">
     <use style="fill:#ff7f00;" x="296.946" xlink:href="#C0_0_44316a752d" y="207.730285714"/>
    </g>
    <g clip-path="url(#p6858f96ca6)">
     <use style="fill:#ff7f00;" x="201.528" xlink:href="#C0_0_44316a752d" y="115.899428571"/>
    </g>
    <g clip-path="url(#p6858f96ca6)">
     <use style="fill:#ff7f00;" x="142.7706" xlink:href="#C0_0_44316a752d" y="135.030857143"/>
    </g>
    <g clip-path="url(#p6858f96ca6)">
     <use style="fill:#ff7f00;" x="164.8674" xlink:href="#C0_0_44316a752d" y="101.550857143"/>
    </g>
    <g clip-path="url(#p6858f96ca6)">
     <use style="fill:#ff7f00;" x="228.1446" xlink:href="#C0_0_44316a752d" y="220.165714286"/>
    </g>
    <g clip-path="url(#p6858f96ca6)">
     <use style="fill:#ff7f00;" x="174.9114" xlink:href="#C0_0_44316a752d" y="164.684571429"/>
    </g>
    <g clip-path="url(#p6858f96ca6)">
     <use style="fill:#ff7f00;" x="195.5016" xlink:href="#C0_0_44316a752d" y="177.12"/>
    </g>
    <g clip-path="url(#p6858f96ca6)">
     <use style="fill:#ff7f00;" x="132.52572" xlink:href="#C0_0_44316a752d" y="135.030857143"/>
    </g>
    <g clip-path="url(#p6858f96ca6)">
     <use style="fill:#ff7f00;" x="259.7832" xlink:href="#C0_0_44316a752d" y="221.122285714"/>
    </g>
   </g>
   <g id="PathCollection_2">
    <defs>
     <path d="
M0 3.53553
C0.937635 3.53553 1.83699 3.16301 2.5 2.5
C3.16301 1.83699 3.53553 0.937635 3.53553 0
C3.53553 -0.937635 3.16301 -1.83699 2.5 -2.5
C1.83699 -3.16301 0.937635 -3.53553 0 -3.53553
C-0.937635 -3.53553 -1.83699 -3.16301 -2.5 -2.5
C-3.16301 -1.83699 -3.53553 -0.937635 -3.53553 0
C-3.53553 0.937635 -3.16301 1.83699 -2.5 2.5
C-1.83699 3.16301 -0.937635 3.53553 0 3.53553
z
" id="C1_0_44316a752d"/>
    </defs>
    <g clip-path="url(#p6858f96ca6)">
     <use style="fill:#4daf4a;" x="243.7128" xlink:href="#C1_0_44316a752d" y="224.948571429"/>
    </g>
    <g clip-path="url(#p6858f96ca6)">
     <use style="fill:#4daf4a;" x="269.325" xlink:href="#C1_0_44316a752d" y="224.948571429"/>
    </g>
    <g clip-path="url(#p6858f96ca6)">
     <use style="fill:#4daf4a;" x="303.4746" xlink:href="#C1_0_44316a752d" y="221.122285714"/>
    </g>
    <g clip-path="url(#p6858f96ca6)">
     <use style="fill:#4daf4a;" x="328.0824" xlink:href="#C1_0_44316a752d" y="252.689142857"/>
    </g>
    <g clip-path="url(#p6858f96ca6)">
     <use style="fill:#4daf4a;" x="326.0736" xlink:href="#C1_0_44316a752d" y="242.166857143"/>
    </g>
    <g clip-path="url(#p6858f96ca6)">
     <use style="fill:#4daf4a;" x="326.0736" xlink:href="#C1_0_44316a752d" y="255.558857143"/>
    </g>
    <g clip-path="url(#p6858f96ca6)">
     <use style="fill:#4daf4a;" x="258.7788" xlink:href="#C1_0_44316a752d" y="237.384"/>
    </g>
   </g>
   <g id="PathCollection_3">
    <defs>
     <path d="
M0 3.53553
C0.937635 3.53553 1.83699 3.16301 2.5 2.5
C3.16301 1.83699 3.53553 0.937635 3.53553 0
C3.53553 -0.937635 3.16301 -1.83699 2.5 -2.5
C1.83699 -3.16301 0.937635 -3.53553 0 -3.53553
C-0.937635 -3.53553 -1.83699 -3.16301 -2.5 -2.5
C-3.16301 -1.83699 -3.53553 -0.937635 -3.53553 0
C-3.53553 0.937635 -3.16301 1.83699 -2.5 2.5
C-1.83699 3.16301 -0.937635 3.53553 0 3.53553
z
" id="C2_0_44316a752d"/>
    </defs>
    <g clip-path="url(#p6858f96ca6)">
     <use style="fill:#377eb8;" x="326.0736" xlink:href="#C2_0_44316a752d" y="246.949714286"/>
    </g>
    <g clip-path="url(#p6858f96ca6)">
     <use style="fill:#377eb8;" x="339.1308" xlink:href="#C2_0_44316a752d" y="289.038857143"/>
    </g>
    <g clip-path="url(#p6858f96ca6)">
     <use style="fill:#377eb8;" x="389.3508" xlink:href="#C2_0_44316a752d" y="268.950857143"/>
    </g>
    <g clip-path="url(#p6858f96ca6)">
     <use style="fill:#377eb8;" x="355.2012" xlink:href="#C2_0_44316a752d" y="260.341714286"/>
    </g>
    <g clip-path="url(#p6858f96ca6)">
     <use style="fill:#377eb8;" x="360.2232" xlink:href="#C2_0_44316a752d" y="280.429714286"/>
    </g>
    <g clip-path="url(#p6858f96ca6)">
     <use style="fill:#377eb8;" x="507.87" xlink:href="#C2_0_44316a752d" y="326.345142857"/>
    </g>
    <g clip-path="url(#p6858f96ca6)">
     <use style="fill:#377eb8;" x="525.34656" xlink:href="#C2_0_44316a752d" y="326.345142857"/>
    </g>
    <g clip-path="url(#p6858f96ca6)">
     <use style="fill:#377eb8;" x="517.4118" xlink:href="#C2_0_44316a752d" y="285.212571429"/>
    </g>
    <g clip-path="url(#p6858f96ca6)">
     <use style="fill:#377eb8;" x="334.1088" xlink:href="#C2_0_44316a752d" y="277.56"/>
    </g>
    <g clip-path="url(#p6858f96ca6)">
     <use style="fill:#377eb8;" x="325.5714" xlink:href="#C2_0_44316a752d" y="280.429714286"/>
    </g>
    <g clip-path="url(#p6858f96ca6)">
     <use style="fill:#377eb8;" x="366.2496" xlink:href="#C2_0_44316a752d" y="298.604571429"/>
    </g>
    <g clip-path="url(#p6858f96ca6)">
     <use style="fill:#377eb8;" x="366.7518" xlink:href="#C2_0_44316a752d" y="242.166857143"/>
    </g>
    <g clip-path="url(#p6858f96ca6)">
     <use style="fill:#377eb8;" x="298.9548" xlink:href="#C2_0_44316a752d" y="274.690285714"/>
    </g>
    <g clip-path="url(#p6858f96ca6)">
     <use style="fill:#377eb8;" x="339.1308" xlink:href="#C2_0_44316a752d" y="282.342857143"/>
    </g>
   </g>
   <g id="line2d_81">
    <path clip-path="url(#p6858f96ca6)" d="
M243.713 203.114
L269.325 216.15
L213.581 187.777
L303.475 233.532
L326.074 245.035
L328.082 246.058
L339.131 251.681
L300.964 232.254
L296.946 230.209
L326.074 245.035
L326.074 245.035
L389.351 277.243
L355.201 259.861
L360.223 262.417
L507.87 337.569
L525.347 346.465
L517.412 342.426
L201.528 181.642
L142.771 151.734
L164.867 162.982
L228.145 195.19
L334.109 249.125
L325.571 244.78
L366.25 265.485
L366.752 265.74
L174.911 168.094
L195.502 178.574
L132.526 146.52
L298.955 231.232
L258.779 210.782
L339.131 251.681
L259.783 211.294" style="fill:none;stroke:#000000;"/>
   </g>
   <g id="patch_3">
    <path d="
M81 43.2
L583.2 43.2" style="fill:none;opacity:0.0;"/>
   </g>
   <g id="patch_4">
    <path d="
M583.2 378
L583.2 43.2" style="fill:none;opacity:0.0;"/>
   </g>
   <g id="patch_5">
    <path d="
M81 378
L583.2 378" style="fill:none;opacity:0.0;"/>
   </g>
   <g id="patch_6">
    <path d="
M81 378
L81 43.2" style="fill:none;opacity:0.0;"/>
   </g>
   <g id="patch_7">
    <path d="
M225.952 289.671
Q238.122 227.829 303.889 234.2" style="fill:none;stroke:#000000;stroke-linecap:round;"/>
    <path d="
M297.828 230.398
L303.889 234.2
L297.211 236.768" style="fill:none;stroke:#000000;stroke-linecap:round;"/>
   </g>
   <g id="text_17">
    <!-- $y = -5.34\cdot x + 37.29$ -->
    <defs>
     <path d="
M9.51562 7.71875
Q11.8594 4.29688 15.8125 2.64062
Q19.7812 0.984375 24.3125 0.984375
Q30.125 0.984375 32.5625 5.9375
Q35.0156 10.8906 35.0156 17.1875
Q35.0156 20.0156 34.5 22.8438
Q33.9844 25.6875 32.7656 28.125
Q31.5469 30.5625 29.4219 32.0312
Q27.2969 33.5 24.2188 33.5
L17.5781 33.5
Q16.7031 33.5 16.7031 34.4219
L16.7031 35.2969
Q16.7031 36.0781 17.5781 36.0781
L23.0938 36.5312
Q26.6094 36.5312 28.9219 39.1562
Q31.25 41.7969 32.3281 45.5781
Q33.4062 49.3594 33.4062 52.7812
Q33.4062 57.5625 31.1562 60.6406
Q28.9062 63.7188 24.3125 63.7188
Q20.5156 63.7188 17.0469 62.2812
Q13.5781 60.8438 11.5312 57.9062
Q11.7188 57.9531 11.8594 57.9844
Q12.0156 58.0156 12.2031 58.0156
Q14.4531 58.0156 15.9688 56.4531
Q17.4844 54.8906 17.4844 52.6875
Q17.4844 50.5312 15.9688 48.9688
Q14.4531 47.4062 12.2031 47.4062
Q10.0156 47.4062 8.45312 48.9688
Q6.89062 50.5312 6.89062 52.6875
Q6.89062 56.9844 9.46875 60.1562
Q12.0625 63.3281 16.1406 64.9688
Q20.2188 66.6094 24.3125 66.6094
Q27.3438 66.6094 30.7031 65.7031
Q34.0781 64.7969 36.8125 63.1094
Q39.5469 61.4219 41.2812 58.7812
Q43.0156 56.1562 43.0156 52.7812
Q43.0156 48.5781 41.1406 45.0156
Q39.2656 41.4531 35.9844 38.8594
Q32.7188 36.2812 28.8125 35.0156
Q33.1562 34.1875 37.0625 31.7344
Q40.9688 29.2969 43.3281 25.4844
Q45.7031 21.6875 45.7031 17.2812
Q45.7031 11.7656 42.6719 7.29688
Q39.6562 2.82812 34.7188 0.3125
Q29.7812 -2.20312 24.3125 -2.20312
Q19.625 -2.20312 14.9062 -0.40625
Q10.2031 1.375 7.20312 4.9375
Q4.20312 8.5 4.20312 13.4844
Q4.20312 15.9688 5.85938 17.625
Q7.51562 19.2812 10.0156 19.2812
Q11.625 19.2812 12.9688 18.5312
Q14.3125 17.7812 15.0625 16.4062
Q15.8281 15.0469 15.8281 13.4844
Q15.8281 11.0312 14.1094 9.375
Q12.4062 7.71875 10.0156 7.71875
z
" id="Cmr10-33"/>
     <path d="
M8.40625 25
Q8.40625 26.4219 9.125 27.6875
Q9.85938 28.9531 11.1562 29.7344
Q12.4531 30.5156 13.9219 30.5156
Q15.3281 30.5156 16.625 29.7344
Q17.9219 28.9531 18.6562 27.6875
Q19.3906 26.4219 19.3906 25
Q19.3906 22.75 17.7969 21.1094
Q16.2188 19.4844 13.9219 19.4844
Q11.6719 19.4844 10.0312 21.1094
Q8.40625 22.75 8.40625 25" id="Cmsy10-a2"/>
     <path d="
M10.2031 23
Q9.375 23 8.82812 23.625
Q8.29688 24.2656 8.29688 25
Q8.29688 25.7344 8.82812 26.3594
Q9.375 27 10.2031 27
L67.5781 27
Q68.3594 27 68.875 26.3594
Q69.3906 25.7344 69.3906 25
Q69.3906 24.2656 68.875 23.625
Q68.3594 23 67.5781 23
z
" id="Cmsy10-a1"/>
     <path d="
M17.3906 2.59375
Q17.3906 8.15625 18.3594 13.4688
Q19.3438 18.7969 21.2188 24
Q23.0938 29.2031 25.75 34.2031
Q28.4219 39.2031 31.5938 43.6094
L40.7188 56.2969
L29.2969 56.2969
Q11.5312 56.2969 10.9844 55.8125
Q9.67188 54.2031 8.5 46.5781
L5.60938 46.5781
L8.89062 67.5781
L11.8125 67.5781
L11.8125 67.2812
Q11.8125 65.4844 17.9219 64.9375
Q24.0312 64.4062 29.8906 64.4062
L48.4844 64.4062
L48.4844 61.8125
Q48.4844 61.7188 48.4531 61.6719
Q48.4375 61.625 48.3906 61.5312
L34.625 42.1875
Q29.5469 34.6719 28.2656 25.4844
Q27 16.3125 27 2.59375
Q27 0.640625 25.5781 -0.78125
Q24.1719 -2.20312 22.2188 -2.20312
Q20.2188 -2.20312 18.7969 -0.78125
Q17.3906 0.640625 17.3906 2.59375" id="Cmr10-37"/>
     <path d="
M8.6875 11.375
Q9.71875 8.45312 11.8438 6.04688
Q13.9688 3.65625 16.875 2.3125
Q19.7812 0.984375 22.9062 0.984375
Q30.125 0.984375 32.8594 6.59375
Q35.5938 12.2031 35.5938 20.2188
Q35.5938 23.6875 35.4688 26.0469
Q35.3594 28.4219 34.8125 30.6094
Q33.8906 34.125 31.5625 36.7656
Q29.25 39.4062 25.875 39.4062
Q22.5156 39.4062 20.0938 38.375
Q17.6719 37.3594 16.1562 35.9844
Q14.6562 34.625 13.4844 33.1094
Q12.3125 31.5938 12.0156 31.5
L10.8906 31.5
Q10.6406 31.5 10.2656 31.8125
Q9.90625 32.125 9.90625 32.4219
L9.90625 65.8281
Q9.90625 66.0625 10.2188 66.3281
Q10.5469 66.6094 10.8906 66.6094
L11.1875 66.6094
Q17.9219 63.375 25.4844 63.375
Q32.9062 63.375 39.7969 66.6094
L40.0938 66.6094
Q40.4375 66.6094 40.7188 66.3594
Q41.0156 66.1094 41.0156 65.8281
L41.0156 64.8906
Q41.0156 64.4062 40.8281 64.4062
Q37.4062 59.8594 32.25 57.3125
Q27.0938 54.7812 21.5781 54.7812
Q17.5781 54.7812 13.375 55.9062
L13.375 37.0156
Q16.7031 39.7031 19.3125 40.8438
Q21.9219 42 25.9844 42
Q31.5 42 35.8594 38.8125
Q40.2344 35.6406 42.5781 30.5312
Q44.9219 25.4375 44.9219 20.125
Q44.9219 14.1094 41.9688 8.98438
Q39.0156 3.85938 33.9375 0.828125
Q28.8594 -2.20312 22.9062 -2.20312
Q17.9688 -2.20312 13.8438 0.328125
Q9.71875 2.875 7.34375 7.17188
Q4.98438 11.4688 4.98438 16.3125
Q4.98438 18.5625 6.4375 19.9688
Q7.90625 21.3906 10.1094 21.3906
Q12.3125 21.3906 13.7969 19.9375
Q15.2812 18.5 15.2812 16.3125
Q15.2812 14.1562 13.7969 12.6719
Q12.3125 11.1875 10.1094 11.1875
Q9.76562 11.1875 9.32812 11.25
Q8.89062 11.3281 8.6875 11.375" id="Cmr10-35"/>
     <path d="
M2.78125 16.5
L2.78125 20.0156
L33.6875 66.1094
Q34.0312 66.6094 34.7188 66.6094
L36.1875 66.6094
Q37.3125 66.6094 37.3125 65.4844
L37.3125 20.0156
L47.125 20.0156
L47.125 16.5
L37.3125 16.5
L37.3125 6.6875
Q37.3125 4.64062 40.2344 4.07812
Q43.1719 3.51562 47.0156 3.51562
L47.0156 0
L19.4844 0
L19.4844 3.51562
Q23.3438 3.51562 26.2656 4.07812
Q29.2031 4.64062 29.2031 6.6875
L29.2031 16.5
z

M6.10938 20.0156
L29.7812 20.0156
L29.7812 55.4219
z
" id="Cmr10-34"/>
     <path d="
M11.2812 4.20312
Q14.0156 0.984375 20.7969 0.984375
Q24.6094 0.984375 27.9062 3.5625
Q31.2031 6.15625 33.0156 9.90625
Q35.1094 14.1562 35.6875 18.9688
Q36.2812 23.7812 36.2812 30.9062
Q34.5781 26.8594 31.375 24.2656
Q28.1719 21.6875 24.0312 21.6875
Q18.2188 21.6875 13.6406 24.8281
Q9.07812 27.9844 6.64062 33.125
Q4.20312 38.2812 4.20312 44.0938
Q4.20312 50.0938 6.9375 55.2969
Q9.67188 60.5 14.5 63.5469
Q19.3438 66.6094 25.4844 66.6094
Q31.5469 66.6094 35.625 63.3125
Q39.7031 60.0156 41.8438 54.8125
Q44 49.6094 44.8438 43.7969
Q45.7031 37.9844 45.7031 32.3281
Q45.7031 24.6094 42.875 16.5781
Q40.0469 8.54688 34.4062 3.17188
Q28.7656 -2.20312 20.7969 -2.20312
Q14.8906 -2.20312 10.7812 0.578125
Q6.6875 3.375 6.6875 8.98438
Q6.6875 11.0312 8.07812 12.4219
Q9.46875 13.8125 11.5312 13.8125
Q13.5312 13.8125 14.9219 12.4219
Q16.3125 11.0312 16.3125 8.98438
Q16.3125 7.03125 14.8906 5.60938
Q13.4844 4.20312 11.5312 4.20312
z

M24.4219 24.3125
Q28.5156 24.3125 31.125 27.0625
Q33.7344 29.8281 34.9062 33.9219
Q36.0781 38.0312 36.0781 42.0938
L36.0781 44
L36.0781 44.3906
Q36.0781 51.9062 33.875 57.8125
Q31.6875 63.7188 25.4844 63.7188
Q21.5312 63.7188 19.0625 61.9844
Q16.6094 60.25 15.4375 57.375
Q14.2656 54.5 13.9375 51.2188
Q13.625 47.9531 13.625 44.0938
Q13.625 38.4219 14.1562 34.4219
Q14.7031 30.4219 17.0938 27.3594
Q19.4844 24.3125 24.4219 24.3125" id="Cmr10-39"/>
     <path d="
M4.98438 0
L4.98438 2.6875
Q4.98438 2.9375 5.17188 3.21875
L20.7031 20.4062
Q24.2188 24.2188 26.4062 26.7969
Q28.6094 29.3906 30.75 32.7656
Q32.9062 36.1406 34.1562 39.625
Q35.4062 43.1094 35.4062 47.0156
Q35.4062 51.125 33.8906 54.8594
Q32.375 58.5938 29.375 60.8438
Q26.375 63.0938 22.125 63.0938
Q17.7812 63.0938 14.3125 60.4688
Q10.8438 57.8594 9.42188 53.7188
Q9.8125 53.8125 10.5 53.8125
Q12.75 53.8125 14.3281 52.2969
Q15.9219 50.7812 15.9219 48.3906
Q15.9219 46.0938 14.3281 44.5
Q12.75 42.9219 10.5 42.9219
Q8.15625 42.9219 6.5625 44.5469
Q4.98438 46.1875 4.98438 48.3906
Q4.98438 52.1562 6.39062 55.4375
Q7.8125 58.7344 10.4688 61.2969
Q13.1406 63.875 16.4844 65.2344
Q19.8281 66.6094 23.5781 66.6094
Q29.2969 66.6094 34.2188 64.1875
Q39.1562 61.7656 42.0312 57.3438
Q44.9219 52.9375 44.9219 47.0156
Q44.9219 42.6719 43.0156 38.7656
Q41.1094 34.8594 38.125 31.6562
Q35.1562 28.4688 30.5156 24.4062
Q25.875 20.3594 24.4219 19
L13.0938 8.10938
L22.7031 8.10938
Q29.7812 8.10938 34.5469 8.21875
Q39.3125 8.34375 39.5938 8.59375
Q40.7656 9.85938 42 17.8281
L44.9219 17.8281
L42.0938 0
z
" id="Cmr10-32"/>
     <path d="
M7.51562 23
Q6.6875 23 6.14062 23.625
Q5.60938 24.2656 5.60938 25
Q5.60938 25.7344 6.14062 26.3594
Q6.6875 27 7.51562 27
L36.9219 27
L36.9219 56.5
Q36.9219 57.2812 37.5 57.7812
Q38.0938 58.2969 38.9219 58.2969
Q39.6562 58.2969 40.2812 57.7812
Q40.9219 57.2812 40.9219 56.5
L40.9219 27
L70.3125 27
Q71.0469 27 71.5781 26.3594
Q72.125 25.7344 72.125 25
Q72.125 24.2656 71.5781 23.625
Q71.0469 23 70.3125 23
L40.9219 23
L40.9219 -6.5
Q40.9219 -7.28125 40.2812 -7.78125
Q39.6562 -8.29688 38.9219 -8.29688
Q38.0938 -8.29688 37.5 -7.78125
Q36.9219 -7.28125 36.9219 -6.5
L36.9219 23
z
" id="Cmr10-2b"/>
     <path d="
M7.51562 13.2812
Q6.6875 13.2812 6.14062 13.9062
Q5.60938 14.5469 5.60938 15.2812
Q5.60938 16.1094 6.14062 16.6875
Q6.6875 17.2812 7.51562 17.2812
L70.3125 17.2812
Q71.0469 17.2812 71.5781 16.6875
Q72.125 16.1094 72.125 15.2812
Q72.125 14.5469 71.5781 13.9062
Q71.0469 13.2812 70.3125 13.2812
z

M7.51562 32.7188
Q6.6875 32.7188 6.14062 33.2969
Q5.60938 33.8906 5.60938 34.7188
Q5.60938 35.4531 6.14062 36.0781
Q6.6875 36.7188 7.51562 36.7188
L70.3125 36.7188
Q71.0469 36.7188 71.5781 36.0781
Q72.125 35.4531 72.125 34.7188
Q72.125 33.8906 71.5781 33.2969
Q71.0469 32.7188 70.3125 32.7188
z
" id="Cmr10-3d"/>
     <path d="
M7.8125 2.875
Q9.57812 1.51562 12.7969 1.51562
Q15.9219 1.51562 18.3125 4.51562
Q20.7031 7.51562 21.5781 11.0781
L26.125 28.8125
Q27.2031 33.6406 27.2031 35.4062
Q27.2031 37.8906 25.8125 39.75
Q24.4219 41.6094 21.9219 41.6094
Q18.75 41.6094 15.9688 39.625
Q13.1875 37.6406 11.2812 34.5938
Q9.375 31.5469 8.59375 28.4219
Q8.40625 27.7812 7.8125 27.7812
L6.59375 27.7812
Q5.8125 27.7812 5.8125 28.7188
L5.8125 29
Q6.78125 32.7188 9.125 36.25
Q11.4688 39.7969 14.8594 41.9844
Q18.2656 44.1875 22.125 44.1875
Q25.7812 44.1875 28.7344 42.2344
Q31.6875 40.2812 32.9062 36.9219
Q34.625 39.9844 37.2812 42.0781
Q39.9375 44.1875 43.1094 44.1875
Q45.2656 44.1875 47.5 43.4219
Q49.75 42.6719 51.1719 41.1094
Q52.5938 39.5469 52.5938 37.2031
Q52.5938 34.6719 50.9531 32.8281
Q49.3125 31 46.7812 31
Q45.1719 31 44.0938 32.0312
Q43.0156 33.0625 43.0156 34.625
Q43.0156 36.7188 44.4531 38.2969
Q45.9062 39.8906 47.9062 40.1875
Q46.0938 41.6094 42.9219 41.6094
Q39.7031 41.6094 37.3281 38.625
Q34.9688 35.6406 33.9844 31.9844
L29.5938 14.3125
Q28.5156 10.2969 28.5156 7.71875
Q28.5156 5.17188 29.9531 3.34375
Q31.3906 1.51562 33.7969 1.51562
Q38.4844 1.51562 42.1562 5.64062
Q45.8438 9.76562 47.0156 14.7031
Q47.2188 15.2812 47.7969 15.2812
L49.0312 15.2812
Q49.4219 15.2812 49.6562 15.0156
Q49.9062 14.75 49.9062 14.4062
Q49.9062 14.3125 49.8125 14.1094
Q48.3906 8.15625 43.8438 3.51562
Q39.3125 -1.125 33.5938 -1.125
Q29.9375 -1.125 26.9844 0.84375
Q24.0312 2.82812 22.7969 6.20312
Q21.2344 3.26562 18.4688 1.0625
Q15.7188 -1.125 12.5938 -1.125
Q10.4531 -1.125 8.17188 -0.359375
Q5.90625 0.390625 4.48438 1.95312
Q3.07812 3.51562 3.07812 5.90625
Q3.07812 8.25 4.70312 10.1719
Q6.34375 12.1094 8.79688 12.1094
Q10.4531 12.1094 11.5781 11.1094
Q12.7031 10.1094 12.7031 8.5
Q12.7031 6.39062 11.2969 4.82812
Q9.90625 3.26562 7.8125 2.875" id="Cmmi10-78"/>
     <path d="
M8.40625 -14.3125
Q10.5 -17.9219 15.7188 -17.9219
Q20.4531 -17.9219 23.9219 -14.5938
Q27.3906 -11.2812 29.5156 -6.5625
Q31.6406 -1.85938 32.8125 3.07812
Q28.375 -1.125 23.1875 -1.125
Q19.2344 -1.125 16.4531 0.234375
Q13.6719 1.60938 12.125 4.3125
Q10.5938 7.03125 10.5938 10.8906
Q10.5938 14.1562 11.4688 17.5938
Q12.3594 21.0469 13.9375 25.2656
Q15.5312 29.5 16.7031 32.625
Q18.0156 36.2812 18.0156 38.625
Q18.0156 41.6094 15.8281 41.6094
Q11.8594 41.6094 9.29688 37.5312
Q6.73438 33.4531 5.51562 28.4219
Q5.32812 27.7812 4.6875 27.7812
L3.51562 27.7812
Q2.6875 27.7812 2.6875 28.7188
L2.6875 29
Q4.29688 34.9688 7.60938 39.5781
Q10.9375 44.1875 16.0156 44.1875
Q19.5781 44.1875 22.0469 41.8438
Q24.5156 39.5 24.5156 35.8906
Q24.5156 34.0312 23.6875 31.9844
Q23.25 30.7656 21.6875 26.6562
Q20.125 22.5625 19.2812 19.875
Q18.4531 17.1875 17.9219 14.5938
Q17.3906 12.0156 17.3906 9.42188
Q17.3906 6.10938 18.7969 3.8125
Q20.2188 1.51562 23.2969 1.51562
Q29.5 1.51562 34.4219 9.07812
L42 39.8906
Q42.3281 41.2188 43.5469 42.1562
Q44.7812 43.1094 46.1875 43.1094
Q47.4062 43.1094 48.3125 42.3281
Q49.2188 41.5469 49.2188 40.2812
Q49.2188 39.7031 49.125 39.5
L39.2031 -0.296875
Q37.8906 -5.42188 34.375 -10.1094
Q30.8594 -14.7969 25.9062 -17.6562
Q20.9531 -20.5156 15.5781 -20.5156
Q12.9844 -20.5156 10.4375 -19.5
Q7.90625 -18.5 6.34375 -16.5
Q4.78125 -14.5 4.78125 -11.8125
Q4.78125 -9.07812 6.39062 -7.07812
Q8.01562 -5.07812 10.6875 -5.07812
Q12.3125 -5.07812 13.4062 -6.07812
Q14.5 -7.07812 14.5 -8.6875
Q14.5 -10.9844 12.7812 -12.6875
Q11.0781 -14.4062 8.79688 -14.4062
Q8.6875 -14.3594 8.59375 -14.3281
Q8.5 -14.3125 8.40625 -14.3125" id="Cmmi10-79"/>
     <path d="
M8.40625 5.51562
Q8.40625 7.76562 10.0625 9.375
Q11.7188 10.9844 13.9219 10.9844
Q15.2812 10.9844 16.5938 10.25
Q17.9219 9.51562 18.6562 8.20312
Q19.3906 6.89062 19.3906 5.51562
Q19.3906 3.32812 17.7656 1.65625
Q16.1562 0 13.9219 0
Q11.7188 0 10.0625 1.65625
Q8.40625 3.32812 8.40625 5.51562" id="Cmmi10-3a"/>
    </defs>
    <g transform="translate(156.99 307.874285714)scale(0.16 -0.16)">
     <use transform="translate(0.0 21.421875)" xlink:href="#Cmmi10-79"/>
     <use transform="translate(66.58203125 21.421875)" xlink:href="#Cmr10-3d"/>
     <use transform="translate(150.640625 21.421875)" xlink:href="#Cmsy10-a1"/>
     <use transform="translate(228.326171875 21.421875)" xlink:href="#Cmr10-35"/>
     <use transform="translate(278.326171875 21.421875)" xlink:href="#Cmmi10-3a"/>
     <use transform="translate(306.869140625 21.421875)" xlink:href="#Cmr10-33"/>
     <use transform="translate(356.869140625 21.421875)" xlink:href="#Cmr10-34"/>
     <use transform="translate(424.427734375 21.421875)" xlink:href="#Cmsy10-a2"/>
     <use transform="translate(452.970703125 21.421875)" xlink:href="#Cmmi10-78"/>
     <use transform="translate(527.609375 21.421875)" xlink:href="#Cmr10-2b"/>
     <use transform="translate(611.66796875 21.421875)" xlink:href="#Cmr10-33"/>
     <use transform="translate(661.66796875 21.421875)" xlink:href="#Cmr10-37"/>
     <use transform="translate(711.66796875 21.421875)" xlink:href="#Cmmi10-3a"/>
     <use transform="translate(740.2109375 21.421875)" xlink:href="#Cmr10-32"/>
     <use transform="translate(790.2109375 21.421875)" xlink:href="#Cmr10-39"/>
    </g>
   </g>
   <g id="legend_1">
    <g id="patch_8">
     <path d="
M482.484 123.297
L577.2 123.297
L577.2 49.2
L482.484 49.2
L482.484 123.297
z
" style="fill:#ffffff;opacity:0.5;"/>
    </g>
    <g id="line2d_82">
     <path d="
M490.884 58.9263
L507.684 58.9263" style="fill:none;stroke:#000000;"/>
    </g>
    <g id="line2d_83"/>
    <g id="text_18">
     <!-- estimate -->
     <defs>
      <path d="
M56.2031 29.5938
L56.2031 25.2031
L14.8906 25.2031
Q15.4844 15.9219 20.4844 11.0625
Q25.4844 6.20312 34.4219 6.20312
Q39.5938 6.20312 44.4531 7.46875
Q49.3125 8.73438 54.1094 11.2812
L54.1094 2.78125
Q49.2656 0.734375 44.1875 -0.34375
Q39.1094 -1.42188 33.8906 -1.42188
Q20.7969 -1.42188 13.1562 6.1875
Q5.51562 13.8125 5.51562 26.8125
Q5.51562 40.2344 12.7656 48.1094
Q20.0156 56 32.3281 56
Q43.3594 56 49.7812 48.8906
Q56.2031 41.7969 56.2031 29.5938
M47.2188 32.2344
Q47.125 39.5938 43.0938 43.9844
Q39.0625 48.3906 32.4219 48.3906
Q24.9062 48.3906 20.3906 44.1406
Q15.875 39.8906 15.1875 32.1719
z
" id="BitstreamVeraSans-Roman-65"/>
      <path d="
M34.2812 27.4844
Q23.3906 27.4844 19.1875 25
Q14.9844 22.5156 14.9844 16.5
Q14.9844 11.7188 18.1406 8.90625
Q21.2969 6.10938 26.7031 6.10938
Q34.1875 6.10938 38.7031 11.4062
Q43.2188 16.7031 43.2188 25.4844
L43.2188 27.4844
z

M52.2031 31.2031
L52.2031 0
L43.2188 0
L43.2188 8.29688
Q40.1406 3.32812 35.5469 0.953125
Q30.9531 -1.42188 24.3125 -1.42188
Q15.9219 -1.42188 10.9531 3.29688
Q6 8.01562 6 15.9219
Q6 25.1406 12.1719 29.8281
Q18.3594 34.5156 30.6094 34.5156
L43.2188 34.5156
L43.2188 35.4062
Q43.2188 41.6094 39.1406 45
Q35.0625 48.3906 27.6875 48.3906
Q23 48.3906 18.5469 47.2656
Q14.1094 46.1406 10.0156 43.8906
L10.0156 52.2031
Q14.9375 54.1094 19.5781 55.0469
Q24.2188 56 28.6094 56
Q40.4844 56 46.3438 49.8438
Q52.2031 43.7031 52.2031 31.2031" id="BitstreamVeraSans-Roman-61"/>
      <path d="
M9.42188 54.6875
L18.4062 54.6875
L18.4062 0
L9.42188 0
z

M9.42188 75.9844
L18.4062 75.9844
L18.4062 64.5938
L9.42188 64.5938
z
" id="BitstreamVeraSans-Roman-69"/>
      <path d="
M44.2812 53.0781
L44.2812 44.5781
Q40.4844 46.5312 36.375 47.5
Q32.2812 48.4844 27.875 48.4844
Q21.1875 48.4844 17.8438 46.4375
Q14.5 44.3906 14.5 40.2812
Q14.5 37.1562 16.8906 35.375
Q19.2812 33.5938 26.5156 31.9844
L29.5938 31.2969
Q39.1562 29.25 43.1875 25.5156
Q47.2188 21.7812 47.2188 15.0938
Q47.2188 7.46875 41.1875 3.01562
Q35.1562 -1.42188 24.6094 -1.42188
Q20.2188 -1.42188 15.4531 -0.5625
Q10.6875 0.296875 5.42188 2
L5.42188 11.2812
Q10.4062 8.6875 15.2344 7.39062
Q20.0625 6.10938 24.8125 6.10938
Q31.1562 6.10938 34.5625 8.28125
Q37.9844 10.4531 37.9844 14.4062
Q37.9844 18.0625 35.5156 20.0156
Q33.0625 21.9688 24.7031 23.7812
L21.5781 24.5156
Q13.2344 26.2656 9.51562 29.9062
Q5.8125 33.5469 5.8125 39.8906
Q5.8125 47.6094 11.2812 51.7969
Q16.75 56 26.8125 56
Q31.7812 56 36.1719 55.2656
Q40.5781 54.5469 44.2812 53.0781" id="BitstreamVeraSans-Roman-73"/>
     </defs>
     <g transform="translate(520.884375 63.12625)scale(0.12 -0.12)">
      <use xlink:href="#BitstreamVeraSans-Roman-65"/>
      <use x="61.5234375" xlink:href="#BitstreamVeraSans-Roman-73"/>
      <use x="113.623046875" xlink:href="#BitstreamVeraSans-Roman-74"/>
      <use x="152.83203125" xlink:href="#BitstreamVeraSans-Roman-69"/>
      <use x="180.615234375" xlink:href="#BitstreamVeraSans-Roman-6d"/>
      <use x="278.02734375" xlink:href="#BitstreamVeraSans-Roman-61"/>
      <use x="339.306640625" xlink:href="#BitstreamVeraSans-Roman-74"/>
      <use x="378.515625" xlink:href="#BitstreamVeraSans-Roman-65"/>
     </g>
    </g>
    <g id="PathCollection_4">
     <defs>
      <path d="
M0 3.53553
C0.937635 3.53553 1.83699 3.16301 2.5 2.5
C3.16301 1.83699 3.53553 0.937635 3.53553 0
C3.53553 -0.937635 3.16301 -1.83699 2.5 -2.5
C1.83699 -3.16301 0.937635 -3.53553 0 -3.53553
C-0.937635 -3.53553 -1.83699 -3.16301 -2.5 -2.5
C-3.16301 -1.83699 -3.53553 -0.937635 -3.53553 0
C-3.53553 0.937635 -3.16301 1.83699 -2.5 2.5
C-1.83699 3.16301 -0.937635 3.53553 0 3.53553
z
" id="C3_0_44316a752d"/>
      <path d="
M0 3.53553
C0.937635 3.53553 1.83699 3.16301 2.5 2.5
C3.16301 1.83699 3.53553 0.937635 3.53553 0
C3.53553 -0.937635 3.16301 -1.83699 2.5 -2.5
C1.83699 -3.16301 0.937635 -3.53553 0 -3.53553
C-0.937635 -3.53553 -1.83699 -3.16301 -2.5 -2.5
C-3.16301 -1.83699 -3.53553 -0.937635 -3.53553 0
C-3.53553 0.937635 -3.16301 1.83699 -2.5 2.5
C-1.83699 3.16301 -0.937635 3.53553 0 3.53553
z
" id="C3_1_44316a752d"/>
      <path d="
M0 3.53553
C0.937635 3.53553 1.83699 3.16301 2.5 2.5
C3.16301 1.83699 3.53553 0.937635 3.53553 0
C3.53553 -0.937635 3.16301 -1.83699 2.5 -2.5
C1.83699 -3.16301 0.937635 -3.53553 0 -3.53553
C-0.937635 -3.53553 -1.83699 -3.16301 -2.5 -2.5
C-3.16301 -1.83699 -3.53553 -0.937635 -3.53553 0
C-3.53553 0.937635 -3.16301 1.83699 -2.5 2.5
C-1.83699 3.16301 -0.937635 3.53553 0 3.53553
z
" id="C3_2_44316a752d"/>
     </defs>
     <use style="fill:#ff7f00;" x="499.284375" xlink:href="#C3_0_44316a752d" y="77.60125"/>
     <use style="fill:#ff7f00;" x="499.284375" xlink:href="#C3_1_44316a752d" y="77.60125"/>
     <use style="fill:#ff7f00;" x="499.284375" xlink:href="#C3_2_44316a752d" y="77.60125"/>
    </g>
    <g id="text_19">
     <!-- 4 cyl -->
     <defs>
      <path id="BitstreamVeraSans-Roman-20"/>
      <path d="
M9.42188 75.9844
L18.4062 75.9844
L18.4062 0
L9.42188 0
z
" id="BitstreamVeraSans-Roman-6c"/>
      <path d="
M48.7812 52.5938
L48.7812 44.1875
Q44.9688 46.2969 41.1406 47.3438
Q37.3125 48.3906 33.4062 48.3906
Q24.6562 48.3906 19.8125 42.8438
Q14.9844 37.3125 14.9844 27.2969
Q14.9844 17.2812 19.8125 11.7344
Q24.6562 6.20312 33.4062 6.20312
Q37.3125 6.20312 41.1406 7.25
Q44.9688 8.29688 48.7812 10.4062
L48.7812 2.09375
Q45.0156 0.34375 40.9844 -0.53125
Q36.9688 -1.42188 32.4219 -1.42188
Q20.0625 -1.42188 12.7812 6.34375
Q5.51562 14.1094 5.51562 27.2969
Q5.51562 40.6719 12.8594 48.3281
Q20.2188 56 33.0156 56
Q37.1562 56 41.1094 55.1406
Q45.0625 54.2969 48.7812 52.5938" id="BitstreamVeraSans-Roman-63"/>
      <path d="
M32.1719 -5.07812
Q28.375 -14.8438 24.75 -17.8125
Q21.1406 -20.7969 15.0938 -20.7969
L7.90625 -20.7969
L7.90625 -13.2812
L13.1875 -13.2812
Q16.8906 -13.2812 18.9375 -11.5156
Q21 -9.76562 23.4844 -3.21875
L25.0938 0.875
L2.98438 54.6875
L12.5 54.6875
L29.5938 11.9219
L46.6875 54.6875
L56.2031 54.6875
z
" id="BitstreamVeraSans-Roman-79"/>
     </defs>
     <g transform="translate(520.884375 80.75125)scale(0.12 -0.12)">
      <use xlink:href="#BitstreamVeraSans-Roman-34"/>
      <use x="63.623046875" xlink:href="#BitstreamVeraSans-Roman-20"/>
      <use x="95.41015625" xlink:href="#BitstreamVeraSans-Roman-63"/>
      <use x="150.390625" xlink:href="#BitstreamVeraSans-Roman-79"/>
      <use x="209.5703125" xlink:href="#BitstreamVeraSans-Roman-6c"/>
     </g>
    </g>
    <g id="PathCollection_5">
     <defs>
      <path d="
M0 3.53553
C0.937635 3.53553 1.83699 3.16301 2.5 2.5
C3.16301 1.83699 3.53553 0.937635 3.53553 0
C3.53553 -0.937635 3.16301 -1.83699 2.5 -2.5
C1.83699 -3.16301 0.937635 -3.53553 0 -3.53553
C-0.937635 -3.53553 -1.83699 -3.16301 -2.5 -2.5
C-3.16301 -1.83699 -3.53553 -0.937635 -3.53553 0
C-3.53553 0.937635 -3.16301 1.83699 -2.5 2.5
C-1.83699 3.16301 -0.937635 3.53553 0 3.53553
z
" id="C4_0_44316a752d"/>
      <path d="
M0 3.53553
C0.937635 3.53553 1.83699 3.16301 2.5 2.5
C3.16301 1.83699 3.53553 0.937635 3.53553 0
C3.53553 -0.937635 3.16301 -1.83699 2.5 -2.5
C1.83699 -3.16301 0.937635 -3.53553 0 -3.53553
C-0.937635 -3.53553 -1.83699 -3.16301 -2.5 -2.5
C-3.16301 -1.83699 -3.53553 -0.937635 -3.53553 0
C-3.53553 0.937635 -3.16301 1.83699 -2.5 2.5
C-1.83699 3.16301 -0.937635 3.53553 0 3.53553
z
" id="C4_1_44316a752d"/>
      <path d="
M0 3.53553
C0.937635 3.53553 1.83699 3.16301 2.5 2.5
C3.16301 1.83699 3.53553 0.937635 3.53553 0
C3.53553 -0.937635 3.16301 -1.83699 2.5 -2.5
C1.83699 -3.16301 0.937635 -3.53553 0 -3.53553
C-0.937635 -3.53553 -1.83699 -3.16301 -2.5 -2.5
C-3.16301 -1.83699 -3.53553 -0.937635 -3.53553 0
C-3.53553 0.937635 -3.16301 1.83699 -2.5 2.5
C-1.83699 3.16301 -0.937635 3.53553 0 3.53553
z
" id="C4_2_44316a752d"/>
     </defs>
     <use style="fill:#4daf4a;" x="499.284375" xlink:href="#C4_0_44316a752d" y="95.22625"/>
     <use style="fill:#4daf4a;" x="499.284375" xlink:href="#C4_1_44316a752d" y="95.22625"/>
     <use style="fill:#4daf4a;" x="499.284375" xlink:href="#C4_2_44316a752d" y="95.22625"/>
    </g>
    <g id="text_20">
     <!-- 6 cyl -->
     <g transform="translate(520.884375 98.37625)scale(0.12 -0.12)">
      <use xlink:href="#BitstreamVeraSans-Roman-36"/>
      <use x="63.623046875" xlink:href="#BitstreamVeraSans-Roman-20"/>
      <use x="95.41015625" xlink:href="#BitstreamVeraSans-Roman-63"/>
      <use x="150.390625" xlink:href="#BitstreamVeraSans-Roman-79"/>
      <use x="209.5703125" xlink:href="#BitstreamVeraSans-Roman-6c"/>
     </g>
    </g>
    <g id="PathCollection_6">
     <defs>
      <path d="
M0 3.53553
C0.937635 3.53553 1.83699 3.16301 2.5 2.5
C3.16301 1.83699 3.53553 0.937635 3.53553 0
C3.53553 -0.937635 3.16301 -1.83699 2.5 -2.5
C1.83699 -3.16301 0.937635 -3.53553 0 -3.53553
C-0.937635 -3.53553 -1.83699 -3.16301 -2.5 -2.5
C-3.16301 -1.83699 -3.53553 -0.937635 -3.53553 0
C-3.53553 0.937635 -3.16301 1.83699 -2.5 2.5
C-1.83699 3.16301 -0.937635 3.53553 0 3.53553
z
" id="C5_0_44316a752d"/>
      <path d="
M0 3.53553
C0.937635 3.53553 1.83699 3.16301 2.5 2.5
C3.16301 1.83699 3.53553 0.937635 3.53553 0
C3.53553 -0.937635 3.16301 -1.83699 2.5 -2.5
C1.83699 -3.16301 0.937635 -3.53553 0 -3.53553
C-0.937635 -3.53553 -1.83699 -3.16301 -2.5 -2.5
C-3.16301 -1.83699 -3.53553 -0.937635 -3.53553 0
C-3.53553 0.937635 -3.16301 1.83699 -2.5 2.5
C-1.83699 3.16301 -0.937635 3.53553 0 3.53553
z
" id="C5_1_44316a752d"/>
      <path d="
M0 3.53553
C0.937635 3.53553 1.83699 3.16301 2.5 2.5
C3.16301 1.83699 3.53553 0.937635 3.53553 0
C3.53553 -0.937635 3.16301 -1.83699 2.5 -2.5
C1.83699 -3.16301 0.937635 -3.53553 0 -3.53553
C-0.937635 -3.53553 -1.83699 -3.16301 -2.5 -2.5
C-3.16301 -1.83699 -3.53553 -0.937635 -3.53553 0
C-3.53553 0.937635 -3.16301 1.83699 -2.5 2.5
C-1.83699 3.16301 -0.937635 3.53553 0 3.53553
z
" id="C5_2_44316a752d"/>
     </defs>
     <use style="fill:#377eb8;" x="499.284375" xlink:href="#C5_0_44316a752d" y="112.85125"/>
     <use style="fill:#377eb8;" x="499.284375" xlink:href="#C5_1_44316a752d" y="112.85125"/>
     <use style="fill:#377eb8;" x="499.284375" xlink:href="#C5_2_44316a752d" y="112.85125"/>
    </g>
    <g id="text_21">
     <!-- 8 cyl -->
     <defs>
      <path d="
M31.7812 34.625
Q24.75 34.625 20.7188 30.8594
Q16.7031 27.0938 16.7031 20.5156
Q16.7031 13.9219 20.7188 10.1562
Q24.75 6.39062 31.7812 6.39062
Q38.8125 6.39062 42.8594 10.1719
Q46.9219 13.9688 46.9219 20.5156
Q46.9219 27.0938 42.8906 30.8594
Q38.875 34.625 31.7812 34.625
M21.9219 38.8125
Q15.5781 40.375 12.0312 44.7188
Q8.5 49.0781 8.5 55.3281
Q8.5 64.0625 14.7188 69.1406
Q20.9531 74.2188 31.7812 74.2188
Q42.6719 74.2188 48.875 69.1406
Q55.0781 64.0625 55.0781 55.3281
Q55.0781 49.0781 51.5312 44.7188
Q48 40.375 41.7031 38.8125
Q48.8281 37.1562 52.7969 32.3125
Q56.7812 27.4844 56.7812 20.5156
Q56.7812 9.90625 50.3125 4.23438
Q43.8438 -1.42188 31.7812 -1.42188
Q19.7344 -1.42188 13.25 4.23438
Q6.78125 9.90625 6.78125 20.5156
Q6.78125 27.4844 10.7812 32.3125
Q14.7969 37.1562 21.9219 38.8125
M18.3125 54.3906
Q18.3125 48.7344 21.8438 45.5625
Q25.3906 42.3906 31.7812 42.3906
Q38.1406 42.3906 41.7188 45.5625
Q45.3125 48.7344 45.3125 54.3906
Q45.3125 60.0625 41.7188 63.2344
Q38.1406 66.4062 31.7812 66.4062
Q25.3906 66.4062 21.8438 63.2344
Q18.3125 60.0625 18.3125 54.3906" id="BitstreamVeraSans-Roman-38"/>
     </defs>
     <g transform="translate(520.884375 116.00125)scale(0.12 -0.12)">
      <use xlink:href="#BitstreamVeraSans-Roman-38"/>
      <use x="63.623046875" xlink:href="#BitstreamVeraSans-Roman-20"/>
      <use x="95.41015625" xlink:href="#BitstreamVeraSans-Roman-63"/>
      <use x="150.390625" xlink:href="#BitstreamVeraSans-Roman-79"/>
      <use x="209.5703125" xlink:href="#BitstreamVeraSans-Roman-6c"/>
     </g>
    </g>
   </g>
  </g>
 </g>
 <defs>
  <clipPath id="p6858f96ca6">
   <rect height="334.8" width="502.2" x="81.0" y="43.2"/>
  </clipPath>
 </defs>
</svg>
